# xmcd CD database file
#
# Track frame offsets:
#	150
#	22758
#	41114
#	53492
#	75292
#	88525
#	102743
#	122631
#	137999
#	152822
#	170119
#
# Disc length: 2586 seconds
#
# Revision: 0
# Processed by: cddbd v1.5.2PL0 Copyright (c) Steve Scherf et al.
# Submitted via: CDex 1.83
#
DISCID=870a180b
DTITLE=Gershwin, George and Ira - Gershwin's Greatest
DYEAR=2003
DGENRE=Jazz
TTITLE0=Embraceable You
TTITLE1=Love Is Here to Stay
TTITLE2=Fascinating Rhythm
TTITLE3=The Man I Love
TTITLE4=Somebody Loves Me
TTITLE5=S Wonderful
TTITLE6=Someone To Watch Over Me
TTITLE7=They Can't Take That Away From Me
TTITLE8=I Got Rhythm
TTITLE9=I've God A Crush On You
TTITLE10=Summertime
EXTD=YEAR: 2003
EXTT0=
EXTT1=
EXTT2=
EXTT3=
EXTT4=
EXTT5=
EXTT6=
EXTT7=
EXTT8=
EXTT9=
EXTT10=
PLAYORDER=
